<svg width="252" height="218" viewBox="0 0 252 218" fill="none" xmlns="http://www.w3.org/2000/svg">
<path d="M125.62 49.4824L73.0938 140.386L0.64502 108.492" stroke="#B5B5B5" stroke-width="0.646667" stroke-linecap="round" stroke-linejoin="round" stroke-dasharray="3.67 3.67"/>
<path d="M73.0942 140.386H178.195" stroke="#B5B5B5" stroke-width="0.646667" stroke-linecap="round" stroke-linejoin="round" stroke-dasharray="3.67 3.67"/>
<path d="M63.3945 0.645996L125.622 49.4814L187.944 0.645996" stroke="#B5B5B5" stroke-width="0.646667" stroke-linecap="round" stroke-linejoin="round" stroke-dasharray="3.67 3.67"/>
<path d="M125.622 49.4824L178.196 140.386L250.645 108.492" stroke="#B5B5B5" stroke-width="0.646667" stroke-linecap="round" stroke-linejoin="round" stroke-dasharray="3.67 3.67"/>
<path d="M178.195 140.385L188.369 217.14" stroke="#B5B5B5" stroke-width="0.646667" stroke-linecap="round" stroke-linejoin="round" stroke-dasharray="3.67 3.67"/>
<path d="M73.0945 140.386L62.9204 217.141" stroke="#B5B5B5" stroke-width="0.646667" stroke-linecap="round" stroke-linejoin="round" stroke-dasharray="3.67 3.67"/>
<path d="M62.9204 217.141L125.668 195.61" stroke="#B5B5B5" stroke-width="1.29333" stroke-linecap="round" stroke-linejoin="round"/>
<path d="M48.5825 61.7864L63.3467 0.647461" stroke="#B5B5B5" stroke-width="1.29333" stroke-linecap="round" stroke-linejoin="round"/>
<path d="M250.645 108.492L202.708 61.7856" stroke="#B5B5B5" stroke-width="1.29333" stroke-linecap="round" stroke-linejoin="round"/>
<path d="M62.9212 217.142H188.37L250.645 108.492L187.944 0.647461L63.3945 0.647461L0.646484 108.492L62.9212 217.142Z" stroke="#B5B5B5" stroke-width="1.29333" stroke-linecap="round" stroke-linejoin="round"/>
<path d="M187.943 0.646973L202.707 61.7859" stroke="#B5B5B5" stroke-width="1.29333" stroke-linecap="round" stroke-linejoin="round"/>
<path d="M48.582 61.7861L202.707 61.7861L125.621 195.61L48.582 61.7861Z" stroke="#B5B5B5" stroke-width="1.29333" stroke-linecap="round" stroke-linejoin="round"/>
<path d="M188.368 217.142L125.667 195.611" stroke="#B5B5B5" stroke-width="1.29333" stroke-linecap="round" stroke-linejoin="round"/>
<path d="M0.646484 108.492L48.5829 61.7861" stroke="#B5B5B5" stroke-width="1.29333" stroke-linecap="round" stroke-linejoin="round"/>
</svg>
