<svg width="252" height="232" viewBox="0 0 252 232" fill="none" xmlns="http://www.w3.org/2000/svg">
<path d="M56.2227 122.567L90.9973 62.5508" stroke="#B5B5B5" stroke-width="0.646667" stroke-linecap="round" stroke-linejoin="round" stroke-dasharray="3.67 3.67"/>
<path d="M90.8802 182.784L56.2225 122.567L12.1323 99.7622" stroke="#B5B5B5" stroke-width="0.646667" stroke-linecap="round" stroke-linejoin="round" stroke-dasharray="3.67 3.67"/>
<path d="M160.313 62.5508H90.9977L50.0962 34.3872" stroke="#B5B5B5" stroke-width="0.646667" stroke-linecap="round" stroke-linejoin="round" stroke-dasharray="3.67 3.67"/>
<path d="M160.413 182.784H90.8806L87.6753 231.214" stroke="#B5B5B5" stroke-width="0.646667" stroke-linecap="round" stroke-linejoin="round" stroke-dasharray="3.67 3.67"/>
<path d="M195.071 122.567L160.313 62.5508L201.198 34.3872" stroke="#B5B5B5" stroke-width="0.646667" stroke-linecap="round" stroke-linejoin="round" stroke-dasharray="3.67 3.67"/>
<path d="M239.177 99.7622L195.07 122.567L160.413 182.784L163.618 231.214" stroke="#B5B5B5" stroke-width="0.646667" stroke-linecap="round" stroke-linejoin="round" stroke-dasharray="3.67 3.67"/>
<path d="M218.16 119.044L171.999 199.311H79.2949" stroke="#B5B5B5" stroke-width="1.29333" stroke-linecap="round" stroke-linejoin="round"/>
<path d="M250.647 144.503L218.159 119.044L171.815 39.1108L79.4949 39.1108L33.1343 119.044" stroke="#B5B5B5" stroke-width="1.29333" stroke-linecap="round" stroke-linejoin="round"/>
<path d="M84.1362 0.646973L79.4951 39.111" stroke="#B5B5B5" stroke-width="1.29333" stroke-linecap="round" stroke-linejoin="round"/>
<path d="M167.158 0.647461L171.815 39.1115" stroke="#B5B5B5" stroke-width="1.29333" stroke-linecap="round" stroke-linejoin="round"/>
<path d="M171.999 199.311L209.144 216.857" stroke="#B5B5B5" stroke-width="1.29333" stroke-linecap="round" stroke-linejoin="round"/>
<path d="M0.646484 144.504L33.1339 119.045L79.2942 199.312L42.149 216.841" stroke="#B5B5B5" stroke-width="1.29333" stroke-linecap="round" stroke-linejoin="round"/>
<path d="M50.0955 34.3869L84.1356 0.647461L167.157 0.647461L201.197 34.3869L239.177 99.7624L250.646 144.504L209.144 216.841L163.618 231.215H87.6748L42.149 216.841L0.646484 144.504L12.1323 99.7624L50.0955 34.3869Z" stroke="#B5B5B5" stroke-width="1.29333" stroke-linecap="round" stroke-linejoin="round"/>
</svg>
