<svg width="252" height="245" viewBox="0 0 252 245" fill="none" xmlns="http://www.w3.org/2000/svg">
<path d="M15.4561 135.284L42.4257 147.15" stroke="#B5B5B5" stroke-width="0.646667" stroke-linecap="round" stroke-linejoin="round" stroke-dasharray="3.67 3.67"/>
<path d="M145.354 157.756L165.018 123.629" stroke="#B5B5B5" stroke-width="0.646667" stroke-linecap="round" stroke-linejoin="round" stroke-dasharray="3.67 3.67"/>
<path d="M31.7153 203.245L59.3787 211.811L102.135 244.056" stroke="#B5B5B5" stroke-width="0.646667" stroke-linecap="round" stroke-linejoin="round" stroke-dasharray="3.67 3.67"/>
<path d="M188.131 183.243L145.354 157.756H105.94L86.2749 123.628L105.982 89.5747" stroke="#B5B5B5" stroke-width="0.646667" stroke-linecap="round" stroke-linejoin="round" stroke-dasharray="3.67 3.67"/>
<path d="M208.868 147.151L165.018 123.628L145.312 89.5747" stroke="#B5B5B5" stroke-width="0.646667" stroke-linecap="round" stroke-linejoin="round" stroke-dasharray="3.67 3.67"/>
<path d="M235.837 135.274L208.867 147.151L188.13 183.243L191.914 211.811" stroke="#B5B5B5" stroke-width="0.646667" stroke-linecap="round" stroke-linejoin="round" stroke-dasharray="3.67 3.67"/>
<path d="M32.167 40.9752L81.7235 21.1211" stroke="#B5B5B5" stroke-width="0.646667" stroke-linecap="round" stroke-linejoin="round" stroke-dasharray="3.67 3.67"/>
<path d="M146.384 39.3145L145.312 89.5751H105.982L104.91 39.3145" stroke="#B5B5B5" stroke-width="0.646667" stroke-linecap="round" stroke-linejoin="round" stroke-dasharray="3.67 3.67"/>
<path d="M169.58 21.1207L146.384 39.3142L104.91 39.3142L81.7236 21.1207L102.303 0.646484" stroke="#B5B5B5" stroke-width="0.646667" stroke-linecap="round" stroke-linejoin="round" stroke-dasharray="3.67 3.67"/>
<path d="M148.99 0.646484L169.58 21.1207L219.126 40.9748" stroke="#B5B5B5" stroke-width="0.646667" stroke-linecap="round" stroke-linejoin="round" stroke-dasharray="3.67 3.67"/>
<path d="M149.158 244.056L191.914 211.811L219.578 203.245" stroke="#B5B5B5" stroke-width="0.646667" stroke-linecap="round" stroke-linejoin="round" stroke-dasharray="3.67 3.67"/>
<path d="M242.638 81.3975L235.837 135.274L242.921 162.538" stroke="#B5B5B5" stroke-width="0.646667" stroke-linecap="round" stroke-linejoin="round" stroke-dasharray="3.67 3.67"/>
<path d="M8.38232 162.538L15.4558 135.274L8.65559 81.3975" stroke="#B5B5B5" stroke-width="0.646667" stroke-linecap="round" stroke-linejoin="round" stroke-dasharray="3.67 3.67"/>
<path d="M63.1628 183.243L42.4258 147.151L86.2751 123.628" stroke="#B5B5B5" stroke-width="0.646667" stroke-linecap="round" stroke-linejoin="round" stroke-dasharray="3.67 3.67"/>
<path d="M59.3784 211.81L63.1622 183.243L105.939 157.755" stroke="#B5B5B5" stroke-width="0.646667" stroke-linecap="round" stroke-linejoin="round" stroke-dasharray="3.67 3.67"/>
<path d="M75.4595 237.088L98.74 229.101" stroke="#B5B5B5" stroke-width="1.29333" stroke-linecap="round" stroke-linejoin="round"/>
<path d="M154.613 169.559H96.6802L98.7402 229.1H152.564" stroke="#B5B5B5" stroke-width="1.29333" stroke-linecap="round" stroke-linejoin="round"/>
<path d="M183.496 119.393L154.614 169.559L152.564 229.1L175.844 237.088" stroke="#B5B5B5" stroke-width="1.29333" stroke-linecap="round" stroke-linejoin="round"/>
<path d="M205.946 43.1089L154.529 69.3848L183.496 119.393L232.853 89.4176" stroke="#B5B5B5" stroke-width="1.29333" stroke-linecap="round" stroke-linejoin="round"/>
<path d="M250.647 106.759L232.852 89.4169L205.946 43.1082L200.459 20.4268" stroke="#B5B5B5" stroke-width="1.29333" stroke-linecap="round" stroke-linejoin="round"/>
<path d="M8.38213 162.538L31.7152 203.245L75.4594 237.088L102.135 244.056H149.158L175.844 237.088L219.578 203.245L242.921 162.538L250.646 106.759L242.638 81.3978L219.126 40.9748L200.459 20.427L148.99 0.646484L102.303 0.646484L50.8336 20.427L32.1671 40.9748L8.6554 81.3978L0.646484 106.759L8.38213 162.538Z" stroke="#B5B5B5" stroke-width="1.29333" stroke-linecap="round" stroke-linejoin="round"/>
<path d="M67.7973 119.393L18.4406 89.417L0.646484 106.759" stroke="#B5B5B5" stroke-width="1.29333" stroke-linecap="round" stroke-linejoin="round"/>
<path d="M96.7642 69.3841L45.3579 43.1082L50.8338 20.4268" stroke="#B5B5B5" stroke-width="1.29333" stroke-linecap="round" stroke-linejoin="round"/>
<path d="M154.529 69.3843H96.764L67.7974 119.393L96.6799 169.559" stroke="#B5B5B5" stroke-width="1.29333" stroke-linecap="round" stroke-linejoin="round"/>
<path d="M18.4404 89.4167L45.3575 43.1079" stroke="#B5B5B5" stroke-width="1.29333" stroke-linecap="round" stroke-linejoin="round"/>
</svg>
