<svg width="252" height="235" viewBox="0 0 252 235" fill="none" xmlns="http://www.w3.org/2000/svg">
<path d="M53.9731 146.197L79.1936 132.323L90.7814 152.452" stroke="#B5B5B5" stroke-width="0.646667" stroke-linecap="round" stroke-linejoin="round" stroke-dasharray="3.67 3.67"/>
<path d="M65.8819 166.886L53.9733 146.197L8.26367 125.106" stroke="#B5B5B5" stroke-width="0.646667" stroke-linecap="round" stroke-linejoin="round" stroke-dasharray="3.67 3.67"/>
<path d="M177.671 12.4756L201.408 45.0337" stroke="#B5B5B5" stroke-width="0.646667" stroke-linecap="round" stroke-linejoin="round" stroke-dasharray="3.67 3.67"/>
<path d="M177.671 12.4756L206.179 24.2238L201.408 45.0337" stroke="#B5B5B5" stroke-width="0.646667" stroke-linecap="round" stroke-linejoin="round" stroke-dasharray="3.67 3.67"/>
<path d="M165.882 1.08887L177.67 12.4762L137.574 42.9092" stroke="#B5B5B5" stroke-width="0.646667" stroke-linecap="round" stroke-linejoin="round" stroke-dasharray="3.67 3.67"/>
<path d="M226.788 88.7395L201.407 45.0347L173.34 63.519" stroke="#B5B5B5" stroke-width="0.646667" stroke-linecap="round" stroke-linejoin="round" stroke-dasharray="3.67 3.67"/>
<path d="M85.4094 1.08838L73.6211 12.4757" stroke="#B5B5B5" stroke-width="0.646667" stroke-linecap="round" stroke-linejoin="round" stroke-dasharray="3.67 3.67"/>
<path d="M197.277 104.818L197.358 146.197" stroke="#B5B5B5" stroke-width="0.646667" stroke-linecap="round" stroke-linejoin="round" stroke-dasharray="3.67 3.67"/>
<path d="M197.278 104.817L226.789 88.7383" stroke="#B5B5B5" stroke-width="0.646667" stroke-linecap="round" stroke-linejoin="round" stroke-dasharray="3.67 3.67"/>
<path d="M172.138 132.324L197.278 104.818L173.341 63.5186" stroke="#B5B5B5" stroke-width="0.646667" stroke-linecap="round" stroke-linejoin="round" stroke-dasharray="3.67 3.67"/>
<path d="M197.358 146.197L243.027 125.106" stroke="#B5B5B5" stroke-width="0.646667" stroke-linecap="round" stroke-linejoin="round" stroke-dasharray="3.67 3.67"/>
<path d="M172.137 132.323L197.358 146.197L185.449 166.886" stroke="#B5B5B5" stroke-width="0.646667" stroke-linecap="round" stroke-linejoin="round" stroke-dasharray="3.67 3.67"/>
<path d="M226.787 88.7388L243.026 125.106L246.675 93.9112L226.787 88.7388Z" stroke="#B5B5B5" stroke-width="0.646667" stroke-linecap="round" stroke-linejoin="round" stroke-dasharray="3.67 3.67"/>
<path d="M60.3086 215.683L65.882 166.886L101.728 187.656" stroke="#B5B5B5" stroke-width="0.646667" stroke-linecap="round" stroke-linejoin="round" stroke-dasharray="3.67 3.67"/>
<path d="M160.509 152.452H90.7822L101.728 187.656" stroke="#B5B5B5" stroke-width="0.646667" stroke-linecap="round" stroke-linejoin="round" stroke-dasharray="3.67 3.67"/>
<path d="M137.574 42.9081H113.757L73.6211 12.4751" stroke="#B5B5B5" stroke-width="0.646667" stroke-linecap="round" stroke-linejoin="round" stroke-dasharray="3.67 3.67"/>
<path d="M137.254 72.0186L172.138 132.323L160.51 152.452" stroke="#B5B5B5" stroke-width="0.646667" stroke-linecap="round" stroke-linejoin="round" stroke-dasharray="3.67 3.67"/>
<path d="M173.34 63.5186L137.253 72.019L137.574 42.9092L173.34 63.5186Z" stroke="#B5B5B5" stroke-width="0.646667" stroke-linecap="round" stroke-linejoin="round" stroke-dasharray="3.67 3.67"/>
<path d="M185.409 166.887L191.022 215.684" stroke="#B5B5B5" stroke-width="0.646667" stroke-linecap="round" stroke-linejoin="round" stroke-dasharray="3.67 3.67"/>
<path d="M149.562 187.657L160.509 152.452L185.449 166.887L149.562 187.657Z" stroke="#B5B5B5" stroke-width="0.646667" stroke-linecap="round" stroke-linejoin="round" stroke-dasharray="3.67 3.67"/>
<path d="M151.047 220.454L191.023 215.682L166.123 234.046L151.047 220.454Z" stroke="#B5B5B5" stroke-width="0.646667" stroke-linecap="round" stroke-linejoin="round" stroke-dasharray="3.67 3.67"/>
<path d="M49.8845 45.0337L24.5437 88.7386L4.65599 93.911L8.26465 125.106L4.49561 140.503" stroke="#B5B5B5" stroke-width="0.646667" stroke-linecap="round" stroke-linejoin="round" stroke-dasharray="3.67 3.67"/>
<path d="M73.6201 12.4756L49.8832 45.0337L45.1519 24.2238L73.6201 12.4756Z" stroke="#B5B5B5" stroke-width="0.646667" stroke-linecap="round" stroke-linejoin="round" stroke-dasharray="3.67 3.67"/>
<path d="M44.752 210.631L60.3093 215.683" stroke="#B5B5B5" stroke-width="0.646667" stroke-linecap="round" stroke-linejoin="round" stroke-dasharray="3.67 3.67"/>
<path d="M100.284 220.454L60.3086 215.683L85.1682 234.047L100.284 220.454Z" stroke="#B5B5B5" stroke-width="0.646667" stroke-linecap="round" stroke-linejoin="round" stroke-dasharray="3.67 3.67"/>
<path d="M149.562 187.656L151.046 220.454H100.284L101.728 187.656H149.562Z" stroke="#B5B5B5" stroke-width="0.646667" stroke-linecap="round" stroke-linejoin="round" stroke-dasharray="3.67 3.67"/>
<path d="M246.796 140.503L240.661 149.565L206.579 210.631" stroke="#B5B5B5" stroke-width="0.646667" stroke-linecap="round" stroke-linejoin="round" stroke-dasharray="3.67 3.67"/>
<path d="M44.7522 210.631L39.2991 199.444L4.49561 140.503" stroke="#B5B5B5" stroke-width="0.646667" stroke-linecap="round" stroke-linejoin="round" stroke-dasharray="3.67 3.67"/>
<path d="M65.8823 166.886L90.782 152.452" stroke="#B5B5B5" stroke-width="0.646667" stroke-linecap="round" stroke-linejoin="round" stroke-dasharray="3.67 3.67"/>
<path d="M24.5422 88.7388L8.26318 125.106" stroke="#B5B5B5" stroke-width="0.646667" stroke-linecap="round" stroke-linejoin="round" stroke-dasharray="3.67 3.67"/>
<path d="M165.882 1.08838L85.4087 1.08838" stroke="#B5B5B5" stroke-width="0.646667" stroke-linecap="round" stroke-linejoin="round" stroke-dasharray="3.67 3.67"/>
<path d="M206.58 210.631L191.022 215.683" stroke="#B5B5B5" stroke-width="0.646667" stroke-linecap="round" stroke-linejoin="round" stroke-dasharray="3.67 3.67"/>
<path d="M246.796 140.503L243.027 125.106" stroke="#B5B5B5" stroke-width="0.646667" stroke-linecap="round" stroke-linejoin="round" stroke-dasharray="3.67 3.67"/>
<path d="M54.0537 104.817L77.951 63.5181" stroke="#B5B5B5" stroke-width="0.646667" stroke-linecap="round" stroke-linejoin="round" stroke-dasharray="3.67 3.67"/>
<path d="M54.0542 104.817L79.1945 132.323" stroke="#B5B5B5" stroke-width="0.646667" stroke-linecap="round" stroke-linejoin="round" stroke-dasharray="3.67 3.67"/>
<path d="M53.974 146.197L54.0542 104.817L24.5435 88.7388" stroke="#B5B5B5" stroke-width="0.646667" stroke-linecap="round" stroke-linejoin="round" stroke-dasharray="3.67 3.67"/>
<path d="M77.9517 63.5176L114.038 72.018" stroke="#B5B5B5" stroke-width="0.646667" stroke-linecap="round" stroke-linejoin="round" stroke-dasharray="3.67 3.67"/>
<path d="M113.758 42.9092L77.9521 63.5186L49.8848 45.0343" stroke="#B5B5B5" stroke-width="0.646667" stroke-linecap="round" stroke-linejoin="round" stroke-dasharray="3.67 3.67"/>
<path d="M79.1938 132.324L114.037 72.019" stroke="#B5B5B5" stroke-width="0.646667" stroke-linecap="round" stroke-linejoin="round" stroke-dasharray="3.67 3.67"/>
<path d="M113.757 42.9087L114.078 72.0185H137.253" stroke="#B5B5B5" stroke-width="0.646667" stroke-linecap="round" stroke-linejoin="round" stroke-dasharray="3.67 3.67"/>
<path d="M212.034 199.444L206.581 210.631" stroke="#B5B5B5" stroke-width="1.29333" stroke-linecap="round" stroke-linejoin="round"/>
<path d="M212.032 199.445L240.661 149.565" stroke="#B5B5B5" stroke-width="1.29333" stroke-linecap="round" stroke-linejoin="round"/>
<path d="M206.582 210.632L246.798 140.503" stroke="#B5B5B5" stroke-width="1.29333" stroke-linecap="round" stroke-linejoin="round"/>
<path d="M4.49561 140.502L44.7522 210.631" stroke="#B5B5B5" stroke-width="1.29333" stroke-linecap="round" stroke-linejoin="round"/>
<path d="M4.49561 140.502L10.6704 149.564" stroke="#B5B5B5" stroke-width="1.29333" stroke-linecap="round" stroke-linejoin="round"/>
<path d="M206.581 210.631L181.4 229.396L166.124 234.048H85.1694L69.9328 229.396L44.7524 210.631" stroke="#B5B5B5" stroke-width="1.29333" stroke-linecap="round" stroke-linejoin="round"/>
<path d="M246.797 140.503L250.646 108.787L246.677 93.9116L206.179 24.2244L194.953 12.8371L165.883 1.08887" stroke="#B5B5B5" stroke-width="1.29333" stroke-linecap="round" stroke-linejoin="round"/>
<path d="M85.4092 1.08754L97.0371 0.646484L154.294 0.646484L165.882 1.08754" stroke="#B5B5B5" stroke-width="1.29333" stroke-linecap="round" stroke-linejoin="round"/>
<path d="M85.4098 1.08838L56.3802 12.8366L45.1532 24.2239L4.6561 93.9111L0.646484 108.787L4.49572 140.503" stroke="#B5B5B5" stroke-width="1.29333" stroke-linecap="round" stroke-linejoin="round"/>
<path d="M187.375 186.695L212.034 199.445L181.401 229.397L141.104 213.479" stroke="#B5B5B5" stroke-width="1.29333" stroke-linecap="round" stroke-linejoin="round"/>
<path d="M218.008 79.8779L250.646 108.787L240.662 149.565L218.128 133.206" stroke="#B5B5B5" stroke-width="1.29333" stroke-linecap="round" stroke-linejoin="round"/>
<path d="M202.571 53.2938L194.952 12.8367L154.295 0.647461L156.38 26.71" stroke="#B5B5B5" stroke-width="1.29333" stroke-linecap="round" stroke-linejoin="round"/>
<path d="M94.9119 26.71L97.037 0.647461L56.3795 12.8367L48.7612 53.2938" stroke="#B5B5B5" stroke-width="1.29333" stroke-linecap="round" stroke-linejoin="round"/>
<path d="M48.7617 53.2933L94.9124 26.7095" stroke="#B5B5B5" stroke-width="1.29333" stroke-linecap="round" stroke-linejoin="round"/>
<path d="M77.7508 68.8112L48.7612 53.2939L33.3242 79.8777" stroke="#B5B5B5" stroke-width="1.29333" stroke-linecap="round" stroke-linejoin="round"/>
<path d="M77.7515 68.8115L94.9126 26.7104L156.38 26.7104" stroke="#B5B5B5" stroke-width="1.29333" stroke-linecap="round" stroke-linejoin="round"/>
<path d="M173.542 68.8101L77.7518 68.8101L61.7534 96.4363" stroke="#B5B5B5" stroke-width="1.29333" stroke-linecap="round" stroke-linejoin="round"/>
<path d="M189.582 96.4372L218.01 79.8774" stroke="#B5B5B5" stroke-width="1.29333" stroke-linecap="round" stroke-linejoin="round"/>
<path d="M189.58 96.436L218.129 133.204" stroke="#B5B5B5" stroke-width="1.29333" stroke-linecap="round" stroke-linejoin="round"/>
<path d="M141.665 179.596L189.579 96.4363L173.541 68.8101" stroke="#B5B5B5" stroke-width="1.29333" stroke-linecap="round" stroke-linejoin="round"/>
<path d="M187.375 186.694L218.129 133.206L218.008 79.8777L202.571 53.2939" stroke="#B5B5B5" stroke-width="1.29333" stroke-linecap="round" stroke-linejoin="round"/>
<path d="M141.665 179.596L187.374 186.693L141.104 213.477" stroke="#B5B5B5" stroke-width="1.29333" stroke-linecap="round" stroke-linejoin="round"/>
<path d="M109.627 179.597H141.664L141.103 213.478H110.229" stroke="#B5B5B5" stroke-width="1.29333" stroke-linecap="round" stroke-linejoin="round"/>
<path d="M202.572 53.2933L156.381 26.7095L173.542 68.8105L202.572 53.2933Z" stroke="#B5B5B5" stroke-width="1.29333" stroke-linecap="round" stroke-linejoin="round"/>
<path d="M10.6705 149.565L0.646484 108.787L33.3249 79.8779" stroke="#B5B5B5" stroke-width="1.29333" stroke-linecap="round" stroke-linejoin="round"/>
<path d="M33.2049 133.205L10.6709 149.564L39.2996 199.444" stroke="#B5B5B5" stroke-width="1.29333" stroke-linecap="round" stroke-linejoin="round"/>
<path d="M33.2051 133.205L33.3254 79.8774L61.7535 96.4372" stroke="#B5B5B5" stroke-width="1.29333" stroke-linecap="round" stroke-linejoin="round"/>
<path d="M63.9187 186.694L33.2051 133.206L61.7535 96.4375L109.628 179.597" stroke="#B5B5B5" stroke-width="1.29333" stroke-linecap="round" stroke-linejoin="round"/>
<path d="M63.9184 186.693L39.2993 199.443L69.9328 229.395L110.229 213.477" stroke="#B5B5B5" stroke-width="1.29333" stroke-linecap="round" stroke-linejoin="round"/>
<path d="M63.9185 186.694L109.628 179.597L110.23 213.478L63.9185 186.694Z" stroke="#B5B5B5" stroke-width="1.29333" stroke-linecap="round" stroke-linejoin="round"/>
</svg>
