<svg width="252" height="263" viewBox="0 0 252 263" fill="none" xmlns="http://www.w3.org/2000/svg">
<path d="M194.71 211.608L125.655 262.018L56.5835 211.608" stroke="#B5B5B5" stroke-width="0.646667" stroke-linecap="round" stroke-linejoin="round" stroke-dasharray="3.67 3.67"/>
<path d="M125.655 169.346L56.5834 211.608L22.2305 151.764L93.954 114.41" stroke="#B5B5B5" stroke-width="0.646667" stroke-linecap="round" stroke-linejoin="round" stroke-dasharray="3.67 3.67"/>
<path d="M22.2313 151.765L12.2573 196.33L56.5842 211.609" stroke="#B5B5B5" stroke-width="0.646667" stroke-linecap="round" stroke-linejoin="round" stroke-dasharray="3.67 3.67"/>
<path d="M22.2312 151.765L12.6543 65.6365L91.2865 32.6812" stroke="#B5B5B5" stroke-width="0.646667" stroke-linecap="round" stroke-linejoin="round" stroke-dasharray="3.67 3.67"/>
<path d="M229.079 151.765L194.711 211.608L125.655 169.346" stroke="#B5B5B5" stroke-width="0.646667" stroke-linecap="round" stroke-linejoin="round" stroke-dasharray="3.67 3.67"/>
<path d="M194.71 211.609L239.053 196.331L229.079 151.766" stroke="#B5B5B5" stroke-width="0.646667" stroke-linecap="round" stroke-linejoin="round" stroke-dasharray="3.67 3.67"/>
<path d="M160.007 32.6812L91.2856 32.6812L125.654 0.646973L160.007 32.6812Z" stroke="#B5B5B5" stroke-width="0.646667" stroke-linecap="round" stroke-linejoin="round" stroke-dasharray="3.67 3.67"/>
<path d="M160.008 32.6812L157.34 114.41L93.9543 114.41L91.2861 32.6812" stroke="#B5B5B5" stroke-width="0.646667" stroke-linecap="round" stroke-linejoin="round" stroke-dasharray="3.67 3.67"/>
<path d="M157.34 114.41L125.655 169.346L93.9541 114.41" stroke="#B5B5B5" stroke-width="0.646667" stroke-linecap="round" stroke-linejoin="round" stroke-dasharray="3.67 3.67"/>
<path d="M157.34 114.41L229.08 151.765L238.641 65.6365L160.009 32.6812" stroke="#B5B5B5" stroke-width="0.646667" stroke-linecap="round" stroke-linejoin="round" stroke-dasharray="3.67 3.67"/>
<path d="M172.269 155.068H79.0254L125.655 74.4502" stroke="#B5B5B5" stroke-width="1.29333" stroke-linecap="round" stroke-linejoin="round"/>
<path d="M125.655 74.4508L42.4804 33.6338L0.646973 105.596L79.0251 155.068" stroke="#B5B5B5" stroke-width="1.29333" stroke-linecap="round" stroke-linejoin="round"/>
<path d="M79.0249 155.068L83.8213 250.393H167.488L172.269 155.068" stroke="#B5B5B5" stroke-width="1.29333" stroke-linecap="round" stroke-linejoin="round"/>
<path d="M125.654 262.018L167.488 250.392L239.053 196.33L250.646 105.595L238.64 65.636L208.813 33.6336L125.654 0.646484L42.4799 33.6336L12.6533 65.636L0.646484 105.595L12.2563 196.33L83.821 250.392L125.654 262.018Z" stroke="#B5B5B5" stroke-width="1.29333" stroke-linecap="round" stroke-linejoin="round"/>
<path d="M172.268 155.067L125.654 74.4498L208.813 33.6328L250.646 105.595L172.268 155.067Z" stroke="#B5B5B5" stroke-width="1.29333" stroke-linecap="round" stroke-linejoin="round"/>
</svg>
